<svg xmlns="http://www.w3.org/2000/svg" width="920" height="560" viewBox="0 0 920 560" role="img" aria-labelledby="title desc">
<title id="title">Top AI-assisted selection candidates</title>
<desc id="desc">Horizontal bar chart ranking top synthetic genotypes by AI-assisted selection index.</desc>
<defs>
<linearGradient id="heroGradient" x1="0" y1="0" x2="1" y2="1">
<stop offset="0%" stop-color="#2A0B45"/>
<stop offset="60%" stop-color="#6A1B9A"/>
<stop offset="100%" stop-color="#1B5E20"/>
</linearGradient>
<linearGradient id="softPurple" x1="0" y1="0" x2="1" y2="0">
<stop offset="0%" stop-color="#6A1B9A"/>
<stop offset="100%" stop-color="#1E88E5"/>
</linearGradient>
<filter id="softShadow" x="-10%" y="-10%" width="120%" height="130%">
<feDropShadow dx="0" dy="8" stdDeviation="8" flood-color="#2A0B45" flood-opacity="0.14"/>
</filter>
<marker id="arrow" markerWidth="10" markerHeight="10" refX="8" refY="3" orient="auto"><path d="M0,0 L0,6 L8,3 z" fill="#6A1B9A"/></marker>
</defs>
<rect width="920" height="560" rx="28" fill="#FDFCFF"/>
<text x="58.0" y="55.0" font-family="Inter, Segoe UI, Arial, sans-serif" font-size="25" font-weight="500" fill="#221B38" text-anchor="start">Top AI-assisted selection candidates</text>
<text x="58.0" y="84.0" font-family="Inter, Segoe UI, Arial, sans-serif" font-size="14" font-weight="400" fill="#6A6177" text-anchor="start">Multi-trait index: predicted yield, vigor, disease score, and maturity</text>
<text x="66.0" y="140.0" font-family="Inter, Segoe UI, Arial, sans-serif" font-size="13" font-weight="500" fill="#221B38" text-anchor="start">AIBREED_G062</text>
<rect x="250" y="122" width="500" height="22" rx="11" fill="#F0EBF5"/>
<rect x="250" y="122" width="500.0" height="22" rx="11" fill="url(#softPurple)"/>
<text x="770.0" y="139.0" font-family="Inter, Segoe UI, Arial, sans-serif" font-size="12" font-weight="500" fill="#6A6177" text-anchor="start">0.8367</text>
<text x="66.0" y="178.0" font-family="Inter, Segoe UI, Arial, sans-serif" font-size="13" font-weight="500" fill="#221B38" text-anchor="start">AIBREED_G003</text>
<rect x="250" y="160" width="500" height="22" rx="11" fill="#F0EBF5"/>
<rect x="250" y="160" width="495.2" height="22" rx="11" fill="url(#softPurple)"/>
<text x="770.0" y="177.0" font-family="Inter, Segoe UI, Arial, sans-serif" font-size="12" font-weight="500" fill="#6A6177" text-anchor="start">0.8287</text>
<text x="66.0" y="216.0" font-family="Inter, Segoe UI, Arial, sans-serif" font-size="13" font-weight="500" fill="#221B38" text-anchor="start">AIBREED_G017</text>
<rect x="250" y="198" width="500" height="22" rx="11" fill="#F0EBF5"/>
<rect x="250" y="198" width="449.3" height="22" rx="11" fill="url(#softPurple)"/>
<text x="770.0" y="215.0" font-family="Inter, Segoe UI, Arial, sans-serif" font-size="12" font-weight="500" fill="#6A6177" text-anchor="start">0.7519</text>
<text x="66.0" y="254.0" font-family="Inter, Segoe UI, Arial, sans-serif" font-size="13" font-weight="500" fill="#221B38" text-anchor="start">AIBREED_G038</text>
<rect x="250" y="236" width="500" height="22" rx="11" fill="#F0EBF5"/>
<rect x="250" y="236" width="447.2" height="22" rx="11" fill="url(#softPurple)"/>
<text x="770.0" y="253.0" font-family="Inter, Segoe UI, Arial, sans-serif" font-size="12" font-weight="500" fill="#6A6177" text-anchor="start">0.7483</text>
<text x="66.0" y="292.0" font-family="Inter, Segoe UI, Arial, sans-serif" font-size="13" font-weight="500" fill="#221B38" text-anchor="start">AIBREED_G008</text>
<rect x="250" y="274" width="500" height="22" rx="11" fill="#F0EBF5"/>
<rect x="250" y="274" width="443.0" height="22" rx="11" fill="url(#softPurple)"/>
<text x="770.0" y="291.0" font-family="Inter, Segoe UI, Arial, sans-serif" font-size="12" font-weight="500" fill="#6A6177" text-anchor="start">0.7413</text>
<text x="66.0" y="330.0" font-family="Inter, Segoe UI, Arial, sans-serif" font-size="13" font-weight="500" fill="#221B38" text-anchor="start">AIBREED_G073</text>
<rect x="250" y="312" width="500" height="22" rx="11" fill="#F0EBF5"/>
<rect x="250" y="312" width="434.0" height="22" rx="11" fill="url(#softPurple)"/>
<text x="770.0" y="329.0" font-family="Inter, Segoe UI, Arial, sans-serif" font-size="12" font-weight="500" fill="#6A6177" text-anchor="start">0.7263</text>
<text x="66.0" y="368.0" font-family="Inter, Segoe UI, Arial, sans-serif" font-size="13" font-weight="500" fill="#221B38" text-anchor="start">AIBREED_G021</text>
<rect x="250" y="350" width="500" height="22" rx="11" fill="#F0EBF5"/>
<rect x="250" y="350" width="431.1" height="22" rx="11" fill="url(#softPurple)"/>
<text x="770.0" y="367.0" font-family="Inter, Segoe UI, Arial, sans-serif" font-size="12" font-weight="500" fill="#6A6177" text-anchor="start">0.7214</text>
<text x="66.0" y="406.0" font-family="Inter, Segoe UI, Arial, sans-serif" font-size="13" font-weight="500" fill="#221B38" text-anchor="start">AIBREED_G065</text>
<rect x="250" y="388" width="500" height="22" rx="11" fill="#F0EBF5"/>
<rect x="250" y="388" width="420.7" height="22" rx="11" fill="url(#softPurple)"/>
<text x="770.0" y="405.0" font-family="Inter, Segoe UI, Arial, sans-serif" font-size="12" font-weight="500" fill="#6A6177" text-anchor="start">0.7040</text>
<text x="66.0" y="444.0" font-family="Inter, Segoe UI, Arial, sans-serif" font-size="13" font-weight="500" fill="#221B38" text-anchor="start">AIBREED_G051</text>
<rect x="250" y="426" width="500" height="22" rx="11" fill="#F0EBF5"/>
<rect x="250" y="426" width="416.5" height="22" rx="11" fill="url(#softPurple)"/>
<text x="770.0" y="443.0" font-family="Inter, Segoe UI, Arial, sans-serif" font-size="12" font-weight="500" fill="#6A6177" text-anchor="start">0.6969</text>
<text x="66.0" y="482.0" font-family="Inter, Segoe UI, Arial, sans-serif" font-size="13" font-weight="500" fill="#221B38" text-anchor="start">AIBREED_G088</text>
<rect x="250" y="464" width="500" height="22" rx="11" fill="#F0EBF5"/>
<rect x="250" y="464" width="411.6" height="22" rx="11" fill="url(#softPurple)"/>
<text x="770.0" y="481.0" font-family="Inter, Segoe UI, Arial, sans-serif" font-size="12" font-weight="500" fill="#6A6177" text-anchor="start">0.6887</text>
<text x="58.0" y="525.0" font-family="Inter, Segoe UI, Arial, sans-serif" font-size="13" font-weight="400" fill="#6A6177" text-anchor="start">Ranking is for synthetic workflow demonstration, not cultivar recommendation.</text>
</svg>
